<?xml version="1.0" encoding="UTF-8" standalone="no"?>
<svg
   xmlns:dc="http://purl.org/dc/elements/1.1/"
   xmlns:cc="http://creativecommons.org/ns#"
   xmlns:rdf="http://www.w3.org/1999/02/22-rdf-syntax-ns#"
   xmlns:svg="http://www.w3.org/2000/svg"
   xmlns="http://www.w3.org/2000/svg"
   viewBox="0 0 666.66669 666.66669"
   height="666.66669"
   width="666.66669"
   xml:space="preserve"
   id="svg2"
   version="1.1"><metadata
     id="metadata8"><rdf:RDF><cc:Work
         rdf:about=""><dc:format>image/svg+xml</dc:format><dc:type
           rdf:resource="http://purl.org/dc/dcmitype/StillImage" /></cc:Work></rdf:RDF></metadata><defs
     id="defs6"><clipPath
       id="clipPath44"
       clipPathUnits="userSpaceOnUse"><path
         id="path42"
         d="M 466.977,983.18 H 2346.51 c 0,0 103.2,288.83 0,433.01 -152.65,213.28 -562.64,160.35 -624.88,313.95 -62.25,153.59 -133.85,330.01 -289.26,334.97 -155.42,4.95 -284.31,-476.09 -394.57,-540.54 -110.245,-64.46 -193.948,78.08 -402.679,-54.26 C 469.648,1365.4 466.977,983.18 466.977,983.18 Z" /></clipPath><linearGradient
       id="linearGradient50"
       spreadMethod="pad"
       gradientTransform="matrix(1925.4,0,0,-1925.4,466.978,1524.16)"
       gradientUnits="userSpaceOnUse"
       y2="0"
       x2="1"
       y1="0"
       x1="0"><stop
         id="stop46"
         offset="0"
         style="stop-opacity:1;stop-color:#ffffff" /><stop
         id="stop48"
         offset="1"
         style="stop-opacity:1;stop-color:#c8c7e9" /></linearGradient><clipPath
       id="clipPath60"
       clipPathUnits="userSpaceOnUse"><path
         id="path58"
         d="m 2623,983.18 h 1879.54 c 0,0 103.19,288.83 0,433.01 -152.66,213.28 -562.65,160.35 -624.89,313.95 -62.24,153.59 -133.84,330.01 -289.26,334.97 -155.41,4.95 -284.31,-476.09 -394.56,-540.54 -110.26,-64.46 -193.96,78.08 -402.69,-54.26 C 2625.67,1365.4 2623,983.18 2623,983.18 Z" /></clipPath><linearGradient
       id="linearGradient66"
       spreadMethod="pad"
       gradientTransform="matrix(1925.4,0,0,-1925.4,2623,1524.16)"
       gradientUnits="userSpaceOnUse"
       y2="0"
       x2="1"
       y1="0"
       x1="0"><stop
         id="stop62"
         offset="0"
         style="stop-opacity:1;stop-color:#ffffff" /><stop
         id="stop64"
         offset="1"
         style="stop-opacity:1;stop-color:#c8c7e9" /></linearGradient><clipPath
       id="clipPath76"
       clipPathUnits="userSpaceOnUse"><path
         id="path74"
         d="M 3867.09,387.352 H 1145.64 c -329.074,0 -595.835,266.757 -595.835,595.828 H 4462.92 c 0,-329.071 -266.76,-595.828 -595.83,-595.828 z" /></clipPath><radialGradient
       id="radialGradient84"
       spreadMethod="pad"
       gradientTransform="matrix(1749.86,40.0869,9.21271,-402.15,2528.79,1001.76)"
       gradientUnits="userSpaceOnUse"
       r="1"
       cy="0"
       cx="0"
       fy="0"
       fx="0"><stop
         id="stop78"
         offset="0"
         style="stop-opacity:1;stop-color:#b5caec" /><stop
         id="stop80"
         offset="0.998987"
         style="stop-opacity:1;stop-color:#ffffff" /><stop
         id="stop82"
         offset="1"
         style="stop-opacity:1;stop-color:#ffffff" /></radialGradient><clipPath
       id="clipPath204"
       clipPathUnits="userSpaceOnUse"><path
         id="path202"
         d="m 663.711,3507.97 h 890.069 c 0,0 -12.19,184.5 -205.88,132.47 0,0 3.99,114.65 -106.44,127.66 -83.65,9.85 -121.45,-91.05 -121.45,-91.05 0,0 -11.26,195.72 -194.662,156.7 -97.418,-20.72 -97.532,-177.94 -97.532,-177.94 0,0 -145.117,-33.2 -164.105,-147.84 z" /></clipPath><linearGradient
       id="linearGradient210"
       spreadMethod="pad"
       gradientTransform="matrix(890.072,0,0,-890.072,663.71,3673.43)"
       gradientUnits="userSpaceOnUse"
       y2="0"
       x2="1"
       y1="0"
       x1="0"><stop
         id="stop206"
         offset="0"
         style="stop-opacity:1;stop-color:#ffffff" /><stop
         id="stop208"
         offset="1"
         style="stop-opacity:1;stop-color:#c8c7e9" /></linearGradient><clipPath
       id="clipPath220"
       clipPathUnits="userSpaceOnUse"><path
         id="path218"
         d="m 2202.47,4210.76 h 988.47 c 0,0 -30.34,138.73 -186.42,138.73 0,0 -4.81,180.26 -226.59,182.24 -133.98,1.2 -189,-159.87 -189,-159.87 0,0 -110.82,57.2 -186.97,33.63 -76.14,-23.58 -63.62,-119.05 -63.62,-119.05 0,0 -144.54,19.69 -135.87,-75.68 z" /></clipPath><linearGradient
       id="linearGradient226"
       spreadMethod="pad"
       gradientTransform="matrix(988.845,0,0,-988.845,2202.1,4371.25)"
       gradientUnits="userSpaceOnUse"
       y2="0"
       x2="1"
       y1="0"
       x1="0"><stop
         id="stop222"
         offset="0"
         style="stop-opacity:1;stop-color:#ffffff" /><stop
         id="stop224"
         offset="1"
         style="stop-opacity:1;stop-color:#c8c7e9" /></linearGradient><clipPath
       id="clipPath236"
       clipPathUnits="userSpaceOnUse"><path
         id="path234"
         d="m 3246.92,3107.59 h 947.89 c 0,0 -64.41,161.05 -246.17,89.72 0,0 13.8,110.44 -92.03,128.85 -84.69,14.72 -112.73,-59.82 -112.73,-59.82 0,0 -78.55,121.3 -163.3,76.77 -64.45,-33.85 -64.84,-119.83 -64.84,-119.83 0,0 -238.9,-23.67 -268.82,-115.69 z" /></clipPath><linearGradient
       id="linearGradient242"
       spreadMethod="pad"
       gradientTransform="matrix(947.891,0,0,-947.891,3246.93,3230.26)"
       gradientUnits="userSpaceOnUse"
       y2="0"
       x2="1"
       y1="0"
       x1="0"><stop
         id="stop238"
         offset="0"
         style="stop-opacity:1;stop-color:#ffffff" /><stop
         id="stop240"
         offset="1"
         style="stop-opacity:1;stop-color:#c8c7e9" /></linearGradient></defs><g
     transform="matrix(1.3333333,0,0,-1.3333333,0,666.66667)"
     id="g10"><g
       transform="scale(0.1)"
       id="g12"><path
         id="path14"
         style="fill:#ffffff;fill-opacity:1;fill-rule:nonzero;stroke:none"
         d="M 0,0 H 5000 V 5000 H 0 Z" /><path
         id="path16"
         style="fill:#6accb5;fill-opacity:1;fill-rule:nonzero;stroke:none"
         d="m 1825.13,3175.97 c -22.91,34.39 -58.08,54.29 -112.22,54.29 -127.86,0 -150.16,-110.75 -154.05,-262.14 76.47,84.86 165.35,157.22 266.27,207.85" /><path
         id="path18"
         style="fill:#e3da0b;fill-opacity:1;fill-rule:nonzero;stroke:none"
         d="m 1615.74,2885.95 c 67.18,80.21 144.02,165.97 237.88,217.33 -5.45,24.53 -12.92,46.32 -23.38,64.52 -18.01,-8.95 -35.72,-18.58 -53.02,-28.97 -82.06,-49.3 -154.87,-111.94 -218.66,-183.54 -0.53,-28.17 -0.54,-57.62 -0.54,-87.96 0,-15.73 1.05,-31.19 2.81,-46.39 18.38,21.65 36.73,43.3 54.91,65.01" /><path
         id="path20"
         style="fill:#6accb5;fill-opacity:1;fill-rule:nonzero;stroke:none"
         d="m 1748.89,3013.72 c -56.73,-51.56 -106.31,-110.39 -154.76,-169.61 -10.38,-12.68 -20.87,-25.26 -31.37,-37.83 25.83,-171.36 150.15,-301.88 150.15,-301.88 0,0 154.89,162.48 154.89,362.93 0,85.19 -0.03,163.49 -11.93,225.4 -38.57,-21.68 -74.15,-49.17 -106.98,-79.01" /><path
         id="path22"
         style="fill:#6068bb;fill-opacity:1;fill-rule:nonzero;stroke:none"
         d="m 1712.91,2504.4 v 0 c 0,0 154.89,162.48 154.89,362.93 0,3.61 0,7.21 0,10.79 142.01,134.35 358.37,139.54 358.37,139.54 0,0 -5.37,-224.42 -147.11,-366.16 -141.73,-141.73 -366.15,-147.1 -366.15,-147.1" /><path
         id="path24"
         style="fill:#3761b6;fill-opacity:1;fill-rule:nonzero;stroke:none"
         d="m 1712.91,2504.4 c 0,0 5.37,224.42 147.1,366.15 2.57,2.57 5.17,5.09 7.79,7.57 0,-3.58 0,-7.18 0,-10.79 0,-200.45 -154.89,-362.93 -154.89,-362.93" /><path
         id="path26"
         style="fill:#6068bb;fill-opacity:1;fill-rule:nonzero;stroke:none"
         d="m 1712.91,2504.4 c 0,0 -224.42,5.37 -366.16,147.1 -141.73,141.74 -147.11,366.16 -147.11,366.16 0,0 216.37,-5.19 358.38,-139.54 0,-3.58 0,-7.18 0,-10.79 0,-15.73 1.05,-31.19 2.81,-46.39 8.13,9.58 16.26,19.17 24.38,28.75 2.32,-2.68 4.6,-5.39 6.84,-8.11 -9.7,-11.82 -19.49,-23.57 -29.29,-35.3 25.83,-171.36 150.15,-301.88 150.15,-301.88 v 0" /><path
         id="path28"
         style="fill:#506123;fill-opacity:1;fill-rule:nonzero;stroke:none"
         d="m 1560.83,2820.94 c -1.76,15.2 -2.81,30.66 -2.81,46.39 0,3.61 0,7.21 0,10.79 2.62,-2.48 5.21,-5 7.78,-7.57 6.77,-6.77 13.24,-13.74 19.41,-20.86 -8.12,-9.58 -16.25,-19.17 -24.38,-28.75" /><path
         id="path30"
         style="fill:#3761b6;fill-opacity:1;fill-rule:nonzero;stroke:none"
         d="m 1712.91,2504.4 c 0,0 -124.32,130.52 -150.15,301.88 9.8,11.73 19.59,23.48 29.29,35.3 116.18,-141.33 120.86,-337.18 120.86,-337.18" /><g
         transform="scale(10)"
         id="g32"><text
           id="text36"
           style="font-variant:normal;font-weight:600;font-size:23.81110001px;font-family:Montserrat;-inkscape-font-specification:Montserrat-SemiBold;writing-mode:lr-tb;fill:#6068bb;fill-opacity:1;fill-rule:nonzero;stroke:none"
           transform="matrix(1,0,0,-1,135.909,226.824)"><tspan
             id="tspan34"
             y="0"
             x="0 13.143727 31.906921 49.646191">LOGO</tspan></text>
</g><g
         id="g38"><g
           clip-path="url(#clipPath44)"
           id="g40"><path
             id="path52"
             style="fill:url(#linearGradient50);fill-opacity:1;fill-rule:nonzero;stroke:none"
             d="M 466.977,983.18 H 2346.51 c 0,0 103.2,288.83 0,433.01 -152.65,213.28 -562.64,160.35 -624.88,313.95 -62.25,153.59 -133.85,330.01 -289.26,334.97 -155.42,4.95 -284.31,-476.09 -394.57,-540.54 -110.245,-64.46 -193.948,78.08 -402.679,-54.26 C 469.648,1365.4 466.977,983.18 466.977,983.18" /></g></g><g
         id="g54"><g
           clip-path="url(#clipPath60)"
           id="g56"><path
             id="path68"
             style="fill:url(#linearGradient66);fill-opacity:1;fill-rule:nonzero;stroke:none"
             d="m 2623,983.18 h 1879.54 c 0,0 103.19,288.83 0,433.01 -152.66,213.28 -562.65,160.35 -624.89,313.95 -62.24,153.59 -133.84,330.01 -289.26,334.97 -155.41,4.95 -284.31,-476.09 -394.56,-540.54 -110.26,-64.46 -193.96,78.08 -402.69,-54.26 C 2625.67,1365.4 2623,983.18 2623,983.18" /></g></g><g
         id="g70"><g
           clip-path="url(#clipPath76)"
           id="g72"><path
             id="path86"
             style="fill:url(#radialGradient84);fill-opacity:1;fill-rule:nonzero;stroke:none"
             d="M 3867.09,387.352 H 1145.64 c -329.074,0 -595.835,266.757 -595.835,595.828 H 4462.92 c 0,-329.071 -266.76,-595.828 -595.83,-595.828" /></g></g><path
         id="path88"
         style="fill:#6accb5;fill-opacity:1;fill-rule:nonzero;stroke:none"
         d="m 4371.17,982.59 c -25.06,110.29 -49.14,509.35 -227.66,544.66 -198.72,39.29 -203.56,-213.1 -365.57,-194.04 -228.96,26.94 -225.67,-192.97 -307.49,-170.69 -335.55,91.36 -615.29,-179.93 -615.29,-179.93 h 1516.01" /><path
         id="path90"
         style="fill:#4e59b1;fill-opacity:1;fill-rule:nonzero;stroke:none"
         d="m 3933.19,983.25 c -0.05,0.289 -7.3,54.4 -33.61,112.36 -13.17,28.97 -31.11,58.94 -55.49,83.56 -24.36,24.62 -55.28,43.88 -93.93,50.99 -17.29,3.21 -31.09,10.55 -42.78,21.13 -20.45,18.5 -34.23,47.39 -45.73,80.62 -17.33,49.82 -29.48,108.95 -54.45,156.24 -12.51,23.63 -28.33,44.39 -49.83,59.23 -21.48,14.86 -48.56,23.6 -82.79,23.58 -6.51,0 -13.27,-0.31 -20.31,-0.95 -58.8,-5.35 -107.49,-38.69 -154.32,-86.34 -70.29,-71.57 -137.33,-175.97 -229.54,-272.27 -92.2,-96.3 -209.23,-184.47 -379.5,-223.939 l 2.26,-9.742 c 230.11,53.281 364.75,194.881 469.89,324.871 52.58,65.01 97.91,127.17 144.02,174.07 46.16,46.95 92.74,78.37 148.1,83.39 6.75,0.62 13.21,0.91 19.4,0.91 49.6,-0.1 81.19,-18.76 104.44,-47.59 34.85,-43.3 49.29,-110.6 68.29,-170.05 9.55,-29.73 20.3,-57.55 35.92,-79.56 15.57,-22 36.43,-38.19 65.12,-43.43 36.39,-6.72 65.36,-24.72 88.63,-48.19 34.89,-35.19 56.61,-82.81 69.45,-121.64 6.42,-19.41 10.65,-36.61 13.25,-48.93 1.31,-6.148 2.21,-11.09 2.78,-14.48 0.29,-1.692 0.5,-3 0.63,-3.871 l 0.19,-1.297 9.91,1.328" /><path
         id="path92"
         style="fill:#4e59b1;fill-opacity:1;fill-rule:nonzero;stroke:none"
         d="m 3450.54,983.609 127.29,516.941 c 8.71,35.41 42.36,58.84 78.6,54.76 38.29,-4.32 66.52,-37.8 64.32,-76.27 l -29.9,-496.329 -240.31,0.898" /><path
         id="path94"
         style="fill:#6accb5;fill-opacity:1;fill-rule:nonzero;stroke:none"
         d="m 3645.19,1503.91 -86.95,-519.898 9.87,-1.653 86.94,519.901" /><path
         id="path96"
         style="fill:#6accb5;fill-opacity:1;fill-rule:nonzero;stroke:none"
         d="m 3577.21,1397.4 c 0.01,-0.25 0.48,-14.22 5.3,-32.48 4.84,-18.24 14,-40.88 31.9,-58.18 l 6.94,7.2 c -15.96,15.36 -24.63,36.33 -29.17,53.54 -2.27,8.59 -3.52,16.22 -4.2,21.67 -0.34,2.72 -0.53,4.9 -0.64,6.38 l -0.11,1.68 -0.03,0.52 -9.99,-0.33" /><path
         id="path98"
         style="fill:#6accb5;fill-opacity:1;fill-rule:nonzero;stroke:none"
         d="m 3677.79,1241.86 -0.31,-0.57 c -1.68,-2.98 -10,-17.14 -22.89,-30.3 -12.91,-13.23 -30.15,-25.08 -49.36,-25.02 -1.75,0 -3.53,0.1 -5.33,0.3 l -1.11,-9.94 c 2.17,-0.24 4.32,-0.36 6.44,-0.36 12.47,0 23.85,4.02 33.75,9.83 29.65,17.54 47.36,51.01 47.62,51.32 l -8.81,4.74" /><path
         id="path100"
         style="fill:#6accb5;fill-opacity:1;fill-rule:nonzero;stroke:none"
         d="m 3510.96,1133.6 c 0.07,-0.32 2.97,-14.07 12.2,-30.89 9.22,-16.8 24.87,-36.78 50.46,-48.83 l 4.26,9.04 c -23.09,10.87 -37.39,29.01 -45.95,44.6 -4.28,7.78 -7.09,14.9 -8.83,20.03 -0.87,2.56 -1.47,4.63 -1.84,6.04 l -0.41,1.59 -0.11,0.48 -9.78,-2.06" /><path
         id="path102"
         style="fill:#6accb5;fill-opacity:1;fill-rule:nonzero;stroke:none"
         d="m 3686.85,1461.86 -0.09,-0.33 c -0.53,-1.83 -3.48,-10.99 -9.23,-19.29 -2.87,-4.15 -6.41,-8.06 -10.54,-10.85 -4.16,-2.79 -8.81,-4.51 -14.46,-4.52 -2.96,0 -6.21,0.48 -9.83,1.64 l -3.05,-9.52 c 4.51,-1.45 8.82,-2.12 12.88,-2.12 8.31,-0.02 15.46,2.86 21.14,6.99 8.54,6.21 14.08,15.03 17.66,22.24 3.56,7.22 5.12,12.93 5.18,13.14 l -9.66,2.62" /><path
         id="path104"
         style="fill:#4e59b1;fill-opacity:1;fill-rule:nonzero;stroke:none"
         d="m 4036.86,983.141 c 0,0 25.68,105.429 104.35,142.479 88.57,41.71 66.89,176.11 168.77,159 79.34,-13.33 102.74,-301.479 102.74,-301.479 h -375.86" /><path
         id="path106"
         style="fill:#4e59b1;fill-opacity:1;fill-rule:nonzero;stroke:none"
         d="M 2184.32,982.59 H 864.203 c 0,0 48.746,287.93 339.937,225.76 104.05,-22.22 71.01,442.06 358.29,408.26 203.28,-23.9 151.27,-386.21 302.54,-428.05 151.26,-41.84 287.9,-67.58 319.35,-205.97" /><path
         id="path108"
         style="fill:#6accb5;fill-opacity:1;fill-rule:nonzero;stroke:none"
         d="m 2030.16,982.129 c 0.01,0.133 0.44,4.851 0.44,12.902 -0.02,22.239 -3.21,69.969 -27.77,116.479 -24.5,46.52 -70.93,91.59 -155.58,107.11 -45.85,8.48 -78.61,36.96 -106.61,76.01 -41.96,58.52 -71.95,140.2 -116.81,207.72 -22.46,33.75 -48.75,64.02 -82.41,85.88 -33.64,21.86 -74.62,35.16 -125.76,35.14 -9.39,0 -19.13,-0.44 -29.22,-1.36 -76.21,-6.94 -147.01,-45.51 -215.87,-100.19 C 1067.28,1439.75 967.898,1321.13 860.852,1215.57 753.828,1109.96 639.289,1017.65 506.613,987.461 l 2.223,-9.75 c 181.105,41.389 326.496,194.109 464.191,339.049 68.823,72.51 135.703,143.17 203.763,197.23 68.09,54.08 137.21,91.41 210.55,98.06 9.81,0.89 19.24,1.32 28.32,1.32 65.88,-0.05 112.92,-22.5 150.31,-56.97 56.06,-51.7 89.63,-131.19 126.87,-201.59 18.65,-35.2 38.27,-68.13 62.5,-94.16 24.21,-26.01 53.25,-45.09 90.1,-51.87 81.86,-15.17 125.05,-57.68 148.55,-101.94 23.43,-44.27 26.62,-90.53 26.61,-111.809 0,-3.851 -0.1,-6.883 -0.2,-8.929 -0.06,-1.02 -0.11,-1.801 -0.14,-2.321 l -0.06,-0.742 9.96,-0.91" /><path
         id="path110"
         style="fill:#6accb5;fill-opacity:1;fill-rule:nonzero;stroke:none"
         d="m 1598.93,982.43 -62.8,483.56 c -4.3,33.12 -32.52,57.92 -65.92,57.92 -35.29,0 -64.43,-27.58 -66.37,-62.82 l -26.42,-478.66 h 221.51" /><path
         id="path112"
         style="fill:#373597;fill-opacity:1;fill-rule:nonzero;stroke:none"
         d="m 1465.6,1475.46 26.37,-493.3 9.99,0.539 -26.38,493.291" /><path
         id="path114"
         style="fill:#373597;fill-opacity:1;fill-rule:nonzero;stroke:none"
         d="m 1516.63,1373.44 -0.07,-0.46 c -0.42,-2.52 -2.69,-14.83 -8.7,-29.35 -6,-14.53 -15.75,-31.17 -30.76,-42.67 l 6.09,-7.93 c 18.16,13.97 28.85,33.71 35.15,49.85 6.28,16.17 8.14,28.86 8.18,29.11 l -9.89,1.45" /><path
         id="path116"
         style="fill:#373597;fill-opacity:1;fill-rule:nonzero;stroke:none"
         d="m 1409.69,1237.24 c 0.11,-0.25 6.38,-15.92 18.59,-31.89 6.11,-7.98 13.72,-16.05 22.96,-22.24 9.21,-6.18 20.16,-10.46 32.53,-10.47 l 0.02,10 c -10.05,0.02 -18.98,3.43 -26.99,8.78 -12,8 -21.61,20.43 -28.06,30.88 -3.24,5.22 -5.7,9.93 -7.34,13.32 -0.82,1.69 -1.43,3.05 -1.84,3.97 l -0.45,1.05 -0.13,0.32 -9.29,-3.72" /><path
         id="path118"
         style="fill:#373597;fill-opacity:1;fill-rule:nonzero;stroke:none"
         d="m 1550.23,1128.16 -0.15,-0.41 c -0.82,-2.32 -5.26,-13.85 -14.68,-26.44 -9.43,-12.62 -23.73,-26.2 -44.37,-33.23 l 3.22,-9.46 c 24.63,8.39 40.99,25.04 51.14,39.42 10.16,14.41 14.22,26.67 14.33,26.98 l -9.49,3.14" /><path
         id="path120"
         style="fill:#373597;fill-opacity:1;fill-rule:nonzero;stroke:none"
         d="m 1423.46,1440.52 c 0.06,-0.3 1.6,-10.56 7.17,-21.26 2.79,-5.35 6.62,-10.85 12.02,-15.15 5.36,-4.3 12.43,-7.27 20.83,-7.25 2.58,0 5.28,0.27 8.09,0.83 l -1.96,9.81 c -2.21,-0.44 -4.25,-0.64 -6.13,-0.64 -6.1,0.03 -10.68,1.98 -14.61,5.08 -5.87,4.61 -9.94,12.16 -12.34,18.62 -1.21,3.23 -2.02,6.15 -2.52,8.24 -0.25,1.05 -0.42,1.89 -0.53,2.45 l -0.11,0.63 -0.03,0.16 -9.88,-1.52" /><path
         id="path122"
         style="fill:#6accb5;fill-opacity:1;fill-rule:nonzero;stroke:none"
         d="m 793.516,982.59 c 0,0 -18.805,197.61 73.547,198.24 73.546,0.51 110.32,-150.53 110.32,-150.53 0,0 58.837,41.25 114.737,19.62 55.35,-21.43 61.78,-67.33 61.78,-67.33 H 793.516" /><path
         id="path124"
         style="fill:#6accb5;fill-opacity:1;fill-rule:nonzero;stroke:none"
         d="m 1771.28,982.59 c 0,0 -20.78,218.41 81.29,219.11 81.29,0.56 121.93,-166.38 121.93,-166.38 0,0 65.03,45.6 126.81,21.68 61.18,-23.68 68.28,-74.41 68.28,-74.41 h -398.31" /><path
         id="path126"
         style="fill:#4e59b1;fill-opacity:1;fill-rule:nonzero;stroke:none"
         d="m 1844.51,1149.91 48.78,-168.711 9.6,2.781 -48.77,168.71" /><path
         id="path128"
         style="fill:#373597;fill-opacity:1;fill-rule:nonzero;stroke:none"
         d="m 3225.9,3465.78 h 30 v 598.324 h -30 z" /><g
         transform="scale(10)"
         id="g130"><text
           id="text134"
           style="font-variant:normal;font-weight:600;font-size:65.88179779px;font-family:Montserrat;-inkscape-font-specification:Montserrat-SemiBold;writing-mode:lr-tb;fill:#6068bb;fill-opacity:1;fill-rule:nonzero;stroke:none"
           transform="matrix(1,0,0,-1,327.77,352.923)"><tspan
             id="tspan132"
             y="0"
             x="0">E</tspan></text>
</g><path
         id="path136"
         style="fill:#6068bb;fill-opacity:1;fill-rule:nonzero;stroke:none"
         d="m 4165.12,2258.81 v 5 h -693.08 v 688.08 h 688.08 v -693.08 h 5 v 5 -5 h 5 v 703.08 h -708.08 v -708.08 h 708.08 v 5 h -5" /><path
         id="path138"
         style="fill:#6accb5;fill-opacity:1;fill-rule:nonzero;stroke:none"
         d="m 4088.91,2335.03 h -545.65 v 545.64 h 545.65 v -545.64" /><path
         id="path140"
         style="fill:#4e59b1;fill-opacity:1;fill-rule:nonzero;stroke:none"
         d="m 3543.26,2335.03 h 545.65 v 279.49 l -241.16,-159.33 -160.29,90.1 -144.2,-135.62 v -74.64" /><path
         id="path142"
         style="fill:#e3da0b;fill-opacity:1;fill-rule:nonzero;stroke:none"
         d="m 3926.23,2638.69 c 0,-46.89 -38.02,-84.91 -84.91,-84.91 -46.89,0 -84.9,38.02 -84.9,84.91 0,46.89 38.01,84.9 84.9,84.9 46.89,0 84.91,-38.01 84.91,-84.9" /><path
         id="path144"
         style="fill:#e3da0b;fill-opacity:1;fill-rule:nonzero;stroke:none"
         d="m 1909.99,3794.11 h -232.72 v 232.72 h 232.72 v -232.72" /><path
         id="path146"
         style="fill:#6accb5;fill-opacity:1;fill-rule:nonzero;stroke:none"
         d="m 2142.71,3794.11 h -232.72 v 232.72 h 232.72 v -232.72" /><path
         id="path148"
         style="fill:#e8431f;fill-opacity:1;fill-rule:nonzero;stroke:none"
         d="m 2375.43,3794.11 h -232.72 v 232.72 h 232.72 v -232.72" /><path
         id="path150"
         style="fill:#f070b5;fill-opacity:1;fill-rule:nonzero;stroke:none"
         d="m 2608.15,3794.11 h -232.72 v 232.72 h 232.72 v -232.72" /><path
         id="path152"
         style="fill:#6068bb;fill-opacity:1;fill-rule:nonzero;stroke:none"
         d="m 1761.12,3836.48 c 0,-75.43 -61.14,-136.57 -136.56,-136.57 -75.43,0 -136.57,61.14 -136.57,136.57 0,75.42 136.57,305.65 136.57,305.65 0,0 136.56,-230.23 136.56,-305.65" /><path
         id="path154"
         style="fill:#232333;fill-opacity:1;fill-rule:nonzero;stroke:none"
         d="m 2571.88,3169.73 c -1.62,-1.97 -30.09,-129.08 -12.07,-145.18 18.04,-16.11 64.11,-6.36 109.62,-3.1 l 8.35,148.28 h -105.9" /><path
         id="path156"
         style="fill:#232333;fill-opacity:1;fill-rule:nonzero;stroke:none"
         d="m 2569.38,2458.93 c 0,0 81.91,-13.01 149.97,-13.01 68.06,0 175.18,21.68 175.18,21.68 0,0 137.2,-213.03 234.29,-577.69 92.35,-346.86 173.27,-858.18 137.19,-927.269 -34.22,-65.551 -623.31,-63.391 -488.53,-65.539 19.65,-0.313 -485.73,17.98 -476.14,85.328 0,0 58.09,668.34 113.81,935.85 53.45,256.63 154.23,540.65 154.23,540.65" /><path
         id="path158"
         style="fill:#f1916a;fill-opacity:1;fill-rule:nonzero;stroke:none"
         d="m 2650.68,3127.18 c 0,0 4.44,-72.81 -24.23,-94.1 -28.69,-21.29 -137.37,-83.97 -137.37,-83.97 0,0 181.16,-24.14 262.07,-16.99 80.92,7.16 198.67,28.67 198.67,28.67 0,0 -57.35,36.33 -119.48,69.75 -60.51,32.55 -96.57,321.04 -96.57,321.04 l -83.09,-224.4" /><path
         id="path160"
         style="fill:#f1916a;fill-opacity:1;fill-rule:nonzero;stroke:none"
         d="m 3186.73,2115.63 c 0,0 9.74,-31.99 17.5,-50.5 7.76,-18.52 37.64,-27.38 58.27,-16.65 20.63,10.72 21.17,40.19 3.53,58.63 -17.66,18.44 -51.05,36.14 -51.05,36.14 l -28.25,-27.62" /><path
         id="path162"
         style="fill:#f1916a;fill-opacity:1;fill-rule:nonzero;stroke:none"
         d="m 2709.45,3288.62 c 14.15,-85.13 9.39,-180.07 -69.57,-237.78 l 11.57,109.91 58,127.87" /><path
         id="path164"
         style="fill:#ee5d49;fill-opacity:1;fill-rule:nonzero;stroke:none"
         d="m 2685.19,3205.69 c 9.21,-55.44 6.11,-117.26 -45.31,-154.85 l 7.53,71.58 37.78,83.27" /><path
         id="path166"
         style="fill:#f1916a;fill-opacity:1;fill-rule:nonzero;stroke:none"
         d="m 3229.04,2131.26 c 0,0 -100.62,357.97 -165.43,573.7 -37.29,-12.09 -69.65,-14.96 -105.13,-26.01 72.37,-229.18 201.86,-535.25 231.4,-571.6 5.28,-6.48 9.13,-8.73 16.67,-5.09 l 15.93,7.68 c 9.45,4.56 11.82,12.23 6.56,21.32" /><path
         id="path168"
         style="fill:#f1916a;fill-opacity:1;fill-rule:nonzero;stroke:none"
         d="m 1947.25,3041.61 c 0,0 -13.7,32.35 -23.85,50.83 -10.14,18.49 -42.32,24.44 -62.68,10.98 -20.37,-13.47 -17.7,-44.32 2.77,-61.63 20.47,-17.32 57.29,-32.14 57.29,-32.14 l 26.47,31.96" /><path
         id="path170"
         style="fill:#f1916a;fill-opacity:1;fill-rule:nonzero;stroke:none"
         d="m 2212.79,2826.6 -268.62,222.15 c -6.76,6.43 -9.74,1.67 -16.77,-4.47 l -9.14,-10.11 c -6.91,-6.04 -8.19,-16.32 -2.96,-23.87 0,0 226.73,-268.73 246.45,-281.61 32.96,-21.52 60.67,-17.99 93.39,-7.79 l 139.74,61.92 c -24.92,35.16 -44.02,101.47 -44.02,101.47 l -138.07,-57.69" /><path
         id="path172"
         style="fill:#e8431f;fill-opacity:1;fill-rule:nonzero;stroke:none"
         d="m 3020.8,2880.82 c -26.78,60.65 -47.96,99.98 -121.12,114.61 -5.95,1.2 -53.62,-47.77 -217.14,-49.85 -106.39,-1.36 -106.8,55.48 -155.16,33.59 -22.81,-10.32 -91.28,-34.11 -171.31,-69.87 -6.8,-3.04 -10.76,-10.37 -9.27,-17.66 9.07,-44.43 26.32,-84.5 49.73,-120.2 4.21,-6.41 12.52,-8.76 19.59,-5.8 l 116.41,48.79 c 0,0 -5.09,-101.59 -5.42,-151.27 -0.54,-78.37 -11.92,-183.46 41.55,-204.2 0,0 79.22,-21.17 150.79,-21.17 71.59,0 175.08,29.81 175.08,29.81 55.29,11.92 20.52,151.76 21.87,304.47 8.7,-34.36 17.72,-56.32 28.63,-89.08 2.68,-8.09 11.2,-12.79 19.42,-10.53 32.01,8.8 69.31,16.1 102.51,25.56 8.69,2.48 13.69,11.59 11.07,20.23 -33.33,109.63 -48.36,142.49 -57.23,162.57" /><path
         id="path174"
         style="fill:#6068bb;fill-opacity:1;fill-rule:nonzero;stroke:none"
         d="m 2903.61,2479.7 -2.53,-0.11 2.53,0.11" /><path
         id="path176"
         style="fill:#f1916a;fill-opacity:1;fill-rule:nonzero;stroke:none"
         d="m 2631.32,3126.14 v 0 c 51.2,-2.68 95.29,37.02 97.98,88.23 l 6.02,115.16 c 2.69,51.21 -37.02,95.29 -88.22,97.98 -51.21,2.68 -95.29,-37.02 -97.98,-88.23 l -6.03,-115.16 c -2.68,-51.2 37.02,-95.29 88.23,-97.98" /><path
         id="path178"
         style="fill:#232333;fill-opacity:1;fill-rule:nonzero;stroke:none"
         d="m 2586.88,3351.58 c 0,0 78.76,-93.31 122.66,-91.69 0,0 9.1,-208.05 30.27,-229.23 21.18,-21.17 151.04,-12.47 162.53,12.46 11.5,24.93 -7.39,280.81 -151.62,365.26 -58.31,34.14 -212.98,50.4 -203.01,-95.93 0,0 22.91,18.09 39.17,39.13" /><path
         id="path180"
         style="fill:#232333;fill-opacity:1;fill-rule:nonzero;stroke:none"
         d="m 2586.88,3412.73 c -30.71,-16.81 -80.18,-80.18 -40.81,-131.69 l 9.56,55.26 31.25,76.43" /><path
         id="path182"
         style="fill:#ffffff;fill-opacity:1;fill-rule:nonzero;stroke:none"
         d="m 2539.51,2611.8 c 0.31,-0.06 45.25,-8.95 131.92,-8.95 59.07,0 137.52,4.13 234.43,18.01 2.73,0.39 4.63,2.92 4.24,5.65 -0.4,2.74 -2.93,4.64 -5.66,4.25 -96.43,-13.81 -174.41,-17.91 -233.01,-17.91 -42.99,0 -75.56,2.21 -97.34,4.4 -10.89,1.1 -19.09,2.2 -24.54,3.02 -2.73,0.41 -4.77,0.75 -6.12,0.98 -1.35,0.24 -1.97,0.36 -1.97,0.36 -2.71,0.54 -5.34,-1.22 -5.88,-3.93 -0.53,-2.71 1.23,-5.34 3.93,-5.88" /><path
         id="path184"
         style="fill:#ffffff;fill-opacity:1;fill-rule:nonzero;stroke:none"
         d="m 2539.23,2560.44 c 0.32,-0.08 57.35,-14.85 150.35,-14.86 59.38,0 133.43,6.03 216.72,25.77 2.69,0.64 4.35,3.33 3.71,6.02 -0.64,2.69 -3.33,4.35 -6.02,3.71 -82.44,-19.54 -155.71,-25.5 -214.41,-25.5 -45.97,0 -83.01,3.66 -108.52,7.3 -12.75,1.83 -22.62,3.65 -29.28,5.01 -3.33,0.68 -5.86,1.24 -7.55,1.63 -1.68,0.39 -2.48,0.6 -2.49,0.6 -2.67,0.7 -5.4,-0.91 -6.09,-3.58 -0.7,-2.67 0.91,-5.4 3.58,-6.1" /><path
         id="path186"
         style="fill:#e3da0b;fill-opacity:1;fill-rule:nonzero;stroke:none"
         d="m 2737.09,3205.69 c 0,-6.02 -4.87,-10.9 -10.89,-10.9 -6.01,0 -10.89,4.88 -10.89,10.9 0,6.01 4.88,10.89 10.89,10.89 6.02,0 10.89,-4.88 10.89,-10.89" /><path
         id="path188"
         style="fill:#373597;fill-opacity:1;fill-rule:nonzero;stroke:none"
         d="m 2317.07,2143.25 v 5 H 1113.75 V 3346.58 H 2312.07 V 2143.25 h 5 v 5 -5 h 5 V 3356.58 H 1103.75 V 2138.25 h 1218.32 v 5 h -5" /><path
         id="path190"
         style="fill:#6068bb;fill-opacity:1;fill-rule:nonzero;stroke:none"
         d="m 1153.9,2100.52 h -95.03 v 95.04 h 95.03 v -95.04" /><path
         id="path192"
         style="fill:#6068bb;fill-opacity:1;fill-rule:nonzero;stroke:none"
         d="m 2362.22,2100.52 h -95.03 v 95.04 h 95.03 v -95.04" /><path
         id="path194"
         style="fill:#6068bb;fill-opacity:1;fill-rule:nonzero;stroke:none"
         d="m 1153.9,3304.06 h -95.03 v 95.03 h 95.03 v -95.03" /><path
         id="path196"
         style="fill:#6068bb;fill-opacity:1;fill-rule:nonzero;stroke:none"
         d="m 2362.22,3304.06 h -95.03 v 95.03 h 95.03 v -95.03" /><g
         id="g198"><g
           clip-path="url(#clipPath204)"
           id="g200"><path
             id="path212"
             style="fill:url(#linearGradient210);fill-opacity:1;fill-rule:nonzero;stroke:none"
             d="m 663.711,3507.97 h 890.069 c 0,0 -12.19,184.5 -205.88,132.47 0,0 3.99,114.65 -106.44,127.66 -83.65,9.85 -121.45,-91.05 -121.45,-91.05 0,0 -11.26,195.72 -194.662,156.7 -97.418,-20.72 -97.532,-177.94 -97.532,-177.94 0,0 -145.117,-33.2 -164.105,-147.84" /></g></g><g
         id="g214"><g
           clip-path="url(#clipPath220)"
           id="g216"><path
             id="path228"
             style="fill:url(#linearGradient226);fill-opacity:1;fill-rule:nonzero;stroke:none"
             d="m 2202.47,4210.76 h 988.47 c 0,0 -30.34,138.73 -186.42,138.73 0,0 -4.81,180.26 -226.59,182.24 -133.98,1.2 -189,-159.87 -189,-159.87 0,0 -110.82,57.2 -186.97,33.63 -76.14,-23.58 -63.62,-119.05 -63.62,-119.05 0,0 -144.54,19.69 -135.87,-75.68" /></g></g><g
         id="g230"><g
           clip-path="url(#clipPath236)"
           id="g232"><path
             id="path244"
             style="fill:url(#linearGradient242);fill-opacity:1;fill-rule:nonzero;stroke:none"
             d="m 3246.92,3107.59 h 947.89 c 0,0 -64.41,161.05 -246.17,89.72 0,0 13.8,110.44 -92.03,128.85 -84.69,14.72 -112.73,-59.82 -112.73,-59.82 0,0 -78.55,121.3 -163.3,76.77 -64.45,-33.85 -64.84,-119.83 -64.84,-119.83 0,0 -238.9,-23.67 -268.82,-115.69" /></g></g><path
         id="path246"
         style="fill:#1e2328;fill-opacity:1;fill-rule:nonzero;stroke:none"
         d="m 2601.04,265.84 c -4.33,-4.43 -8.04,-9.32 -11.09,-14.531 l -4.64,2.41 c -0.68,2.972 -3.5,5.019 -6.6,4.66 -3.31,-0.387 -5.67,-3.391 -5.29,-6.699 0.39,-3.309 3.39,-5.668 6.7,-5.278 l 1.83,0.508 4.51,-2.34 c -2.5,-5.539 -4.32,-11.39 -5.39,-17.429 l 7.47,-1.321 c 2.3,13.059 8.5,25.071 17.92,34.731 l -5.42,5.289" /><path
         id="path248"
         style="fill:#1e2328;fill-opacity:1;fill-rule:nonzero;stroke:none"
         d="m 2655.91,288.859 c -1.71,0 -3.41,-0.058 -5.09,-0.168 l -0.74,6.258 c 1.87,1.5 2.96,3.891 2.65,6.453 -0.45,3.918 -4.02,6.727 -7.94,6.278 -3.94,-0.461 -6.75,-4.032 -6.28,-7.961 0.3,-2.539 1.89,-4.61 4.04,-5.637 l 0.73,-6.242 c -7.13,-1.16 -14.02,-3.32 -20.59,-6.449 l 3.27,-6.852 c 9.35,4.473 19.41,6.742 29.95,6.742 4.97,0 9.93,-0.531 14.75,-1.582 l 1.61,7.41 c -5.36,1.161 -10.85,1.75 -16.36,1.75" /><path
         id="path250"
         style="fill:#1e2328;fill-opacity:1;fill-rule:nonzero;stroke:none"
         d="m 2721.93,263.391 c 3.31,0.398 5.67,3.41 5.26,6.718 -0.4,3.313 -3.41,5.661 -6.72,5.25 -3.09,-0.379 -5.35,-3.039 -5.3,-6.078 l -4.16,-3.64 c -4.18,4.3 -8.9,8.129 -14.08,11.398 l -4.04,-6.418 c 11.35,-7.141 20.21,-17.262 25.64,-29.242 l 6.9,3.121 c -2.51,5.539 -5.67,10.711 -9.42,15.449 l 4.02,3.512 1.9,-0.07" /><path
         id="path252"
         style="fill:#1e2328;fill-opacity:1;fill-rule:nonzero;stroke:none"
         d="m 2650.44,186.781 c -3.86,-0.242 -7.75,-0.351 -11.57,-0.351 -8.8,0 -17.34,0.601 -24.79,1.789 -3.9,0.621 -8.45,1.551 -12.7,2.922 10.47,-18.61 30.69,-31.25 53.88,-31.25 28.56,0 52.63,19.16 59.5,45.031 -6.82,-4.492 -15.05,-8.25 -24.58,-11.223 -11.8,-3.679 -25.55,-6.07 -39.74,-6.918" /><path
         id="path254"
         style="fill:#1e2328;fill-opacity:1;fill-rule:nonzero;stroke:none"
         d="m 2681.69,217.629 c -7.5,0 -13.6,6.101 -13.6,13.601 0,7.5 6.1,13.602 13.6,13.602 7.5,0 13.61,-6.102 13.61,-13.602 0,-7.5 -6.11,-13.601 -13.61,-13.601 z m -47.37,-9.09 c -10.2,0 -18.5,8.313 -18.5,18.5 0,10.211 8.3,18.512 18.5,18.512 10.19,0 18.5,-8.301 18.5,-18.512 0,-10.187 -8.31,-18.5 -18.5,-18.5 z m 21.59,65.152 c -33.51,0 -60.79,-26.66 -60.79,-59.429 0,-4.25 0.46,-8.492 1.36,-12.614 6.75,-4.828 27.06,-8.91 53.48,-7.308 28.8,1.73 52.97,9.582 66.72,21.59 -0.05,1.941 -0.21,3.89 -0.45,5.812 -3.8,29.617 -29.74,51.949 -60.32,51.949" /><path
         id="path256"
         style="fill:#1e2328;fill-opacity:1;fill-rule:nonzero;stroke:none"
         d="m 2815.95,255.02 c -2.95,1.16 -8.06,3.101 -13.83,2.378 -5.51,-0.687 -8.44,-3.41 -8.44,-10.066 v -8.66 h 22.29 V 221.5 h -22.29 v -54.551 h -19.31 V 221.5 h -13.39 v 17.172 h 13.39 v 8.887 c 0,16.8 8.95,27.82 25.68,27.82 6.42,0 11.57,-1.207 15.9,-3.078 V 255.02" /><path
         id="path258"
         style="fill:#1e2328;fill-opacity:1;fill-rule:nonzero;stroke:none"
         d="m 2862.97,221.711 c -1.77,0.289 -3.58,0.461 -5.26,0.461 -8.95,0 -15.09,-5.481 -15.09,-16.133 v -39.09 h -19.33 v 71.723 h 18.73 v -7.84 c 4.51,6.727 11.4,9.77 20.21,9.77 4.14,0 8.47,-1.282 10.94,-3.372 l -10.2,-15.519" /><path
         id="path260"
         style="fill:#1e2328;fill-opacity:1;fill-rule:nonzero;stroke:none"
         d="m 2888.51,209.582 h 31.74 c -1.77,9.18 -7.32,14.367 -15.61,14.367 -9.1,0 -14.43,-5.48 -16.13,-14.367 z m 51.14,-6.66 c 0,-2.223 -0.16,-4.883 -0.37,-6.512 h -50.85 c 2.07,-10.371 9.32,-14.879 18.43,-14.879 6.22,0 12.94,2.52 18.13,6.891 l 11.33,-12.43 c -8.15,-7.48 -18.5,-10.89 -30.57,-10.89 -21.98,0 -37.23,14.957 -37.23,37.527 0,22.582 14.8,37.973 36.27,37.973 20.64,0 34.78,-15.332 34.86,-37.68" /><path
         id="path262"
         style="fill:#1e2328;fill-opacity:1;fill-rule:nonzero;stroke:none"
         d="m 2965.04,209.582 h 31.75 c -1.78,9.18 -7.34,14.367 -15.62,14.367 -9.1,0 -14.43,-5.48 -16.13,-14.367 z m 51.14,-6.66 c 0,-2.223 -0.15,-4.883 -0.37,-6.512 h -50.85 c 2.07,-10.371 9.33,-14.879 18.43,-14.879 6.22,0 12.96,2.52 18.13,6.891 l 11.33,-12.43 c -8.14,-7.48 -18.5,-10.89 -30.57,-10.89 -21.98,0 -37.23,14.957 -37.23,37.527 0,22.582 14.8,37.973 36.27,37.973 20.65,0 34.78,-15.332 34.86,-37.68" /><path
         id="path264"
         style="fill:#1e2328;fill-opacity:1;fill-rule:nonzero;stroke:none"
         d="m 3042.86,202.852 c 0,-11.332 7.48,-19.762 18.44,-19.762 11.4,0 18.49,8.801 18.49,19.762 0,10.949 -7.09,19.757 -18.49,19.757 -10.96,0 -18.44,-8.437 -18.44,-19.757 z m 56.78,0 c 0,-21.543 -14.95,-37.75 -34.72,-37.75 -9.61,0 -16.43,3.777 -21.09,9.32 V 137.34 h -19.25 v 101.332 h 18.88 v -7.922 c 4.67,5.852 11.54,9.852 21.38,9.852 19.85,0 34.8,-16.223 34.8,-37.75" /><path
         id="path266"
         style="fill:#1e2328;fill-opacity:1;fill-rule:nonzero;stroke:none"
         d="m 3128.08,166.949 h -19.32 v 71.723 h 19.32 z m 2.59,95.192 c 0,-6.961 -5.41,-12.301 -12.36,-12.301 -6.96,0 -12.28,5.34 -12.28,12.301 0,6.949 5.32,12.429 12.28,12.429 6.95,0 12.36,-5.48 12.36,-12.429" /><path
         id="path268"
         style="fill:#1e2328;fill-opacity:1;fill-rule:nonzero;stroke:none"
         d="m 3160.32,213.129 27.01,25.543 h 23.69 l -34.79,-33.75 35.01,-37.973 h -23.76 l -27.16,29.02 v -29.02 H 3141 v 106.59 h 19.32 v -60.41" /><path
         id="path270"
         style="fill:#1e2328;fill-opacity:1;fill-rule:nonzero;stroke:none"
         d="m 1844.12,186.789 v 32.082 c -3.95,6.149 -12.45,11.418 -21.23,11.418 -14.21,0 -22.71,-11.719 -22.71,-27.391 0,-15.668 8.5,-27.25 22.71,-27.25 8.78,0 17.28,4.981 21.23,11.141 z m 0,-19.187 v 10.539 c -5.28,-7.172 -13.91,-12.301 -23.87,-12.301 -18.46,0 -31.5,14.058 -31.5,37.058 0,22.563 12.9,37.211 31.5,37.211 9.52,0 18.16,-4.687 23.87,-12.449 v 37.641 h 10.99 v -97.699 h -10.99" /><path
         id="path272"
         style="fill:#1e2328;fill-opacity:1;fill-rule:nonzero;stroke:none"
         d="m 1904.04,231.031 c -15.1,0 -22.56,-12.75 -23.15,-23.59 h 46.43 c -0.14,10.551 -7.17,23.59 -23.28,23.59 z m -34.73,-27.98 c 0,20.5 14.65,37.058 34.86,37.058 21.39,0 33.99,-16.699 33.99,-37.937 v -2.793 h -57.27 c 0.88,-13.328 10.26,-24.457 25.49,-24.457 8.05,0 16.25,3.219 21.82,8.937 l 5.27,-7.179 c -7.03,-7.032 -16.54,-10.84 -28.12,-10.84 -20.94,0 -36.04,15.09 -36.04,37.211" /><path
         id="path274"
         style="fill:#1e2328;fill-opacity:1;fill-rule:nonzero;stroke:none"
         d="m 1946.07,176.969 5.71,7.91 c 4.69,-5.418 13.63,-10.098 23.29,-10.098 10.84,0 16.7,5.117 16.7,12.149 0,17.14 -43.8,6.601 -43.8,32.82 0,10.98 9.53,20.359 26.36,20.359 12.02,0 20.52,-4.539 26.23,-10.257 l -5.14,-7.61 c -4.23,5.117 -12,8.93 -21.09,8.93 -9.66,0 -15.66,-4.832 -15.66,-11.133 0,-15.527 43.79,-5.269 43.79,-32.809 0,-11.871 -9.52,-21.39 -27.83,-21.39 -11.57,0 -21.38,3.519 -28.56,11.129" /><path
         id="path276"
         style="fill:#1e2328;fill-opacity:1;fill-rule:nonzero;stroke:none"
         d="m 2016.67,167.602 v 70.75 h 10.99 v -70.75 z m -1.9,88.179 c 0,4.098 3.37,7.469 7.31,7.469 4.11,0 7.49,-3.371 7.49,-7.469 0,-4.101 -3.38,-7.32 -7.49,-7.32 -3.94,0 -7.31,3.219 -7.31,7.32" /><path
         id="path278"
         style="fill:#1e2328;fill-opacity:1;fill-rule:nonzero;stroke:none"
         d="m 2097.08,187.961 v 30.91 c -3.8,6.149 -12.3,11.418 -21.09,11.418 -14.21,0 -22.69,-11.277 -22.69,-26.949 0,-15.531 8.48,-26.949 22.69,-26.949 8.79,0 17.29,5.418 21.09,11.57 z m -51.26,-38.531 5.56,8.211 c 5.86,-7.032 12.89,-9.672 23,-9.672 11.72,0 22.7,5.711 22.7,21.242 v 10.109 c -5.12,-7.179 -13.76,-12.601 -23.73,-12.601 -18.45,0 -31.49,13.773 -31.49,36.621 0,22.699 12.89,36.769 31.49,36.769 9.53,0 18.02,-4.687 23.73,-12.449 v 10.692 h 10.99 v -68.704 c 0,-23.437 -16.4,-30.757 -33.69,-30.757 -12.01,0 -20.21,2.347 -28.56,10.539" /><path
         id="path280"
         style="fill:#1e2328;fill-opacity:1;fill-rule:nonzero;stroke:none"
         d="m 2174.14,167.602 v 46.289 c 0,12.449 -6.31,16.398 -15.82,16.398 -8.66,0 -16.86,-5.269 -20.95,-10.98 v -51.707 h -10.99 v 70.75 h 10.99 v -10.25 c 4.97,5.859 14.64,12.007 25.18,12.007 14.81,0 22.56,-7.468 22.56,-22.847 v -49.66 h -10.97" /><path
         id="path282"
         style="fill:#1e2328;fill-opacity:1;fill-rule:nonzero;stroke:none"
         d="m 2234.04,231.031 c -15.09,0 -22.56,-12.75 -23.15,-23.59 h 46.44 c -0.15,10.551 -7.18,23.59 -23.29,23.59 z m -34.72,-27.98 c 0,20.5 14.65,37.058 34.86,37.058 21.39,0 33.99,-16.699 33.99,-37.937 v -2.793 h -57.28 c 0.88,-13.328 10.26,-24.457 25.49,-24.457 8.06,0 16.26,3.219 21.83,8.937 l 5.27,-7.179 c -7.03,-7.032 -16.55,-10.84 -28.12,-10.84 -20.95,0 -36.04,15.09 -36.04,37.211" /><path
         id="path284"
         style="fill:#1e2328;fill-opacity:1;fill-rule:nonzero;stroke:none"
         d="m 2333.5,186.789 v 32.082 c -3.95,6.149 -12.45,11.418 -21.24,11.418 -14.21,0 -22.7,-11.719 -22.7,-27.391 0,-15.668 8.49,-27.25 22.7,-27.25 8.79,0 17.29,4.981 21.24,11.141 z m 0,-19.187 v 10.539 c -5.27,-7.172 -13.92,-12.301 -23.88,-12.301 -18.45,0 -31.49,14.058 -31.49,37.058 0,22.563 12.88,37.211 31.49,37.211 9.52,0 18.17,-4.687 23.88,-12.449 v 37.641 h 10.99 v -97.699 h -10.99" /><path
         id="path286"
         style="fill:#1e2328;fill-opacity:1;fill-rule:nonzero;stroke:none"
         d="m 2429,175.648 c 14.35,0 22.85,11.582 22.85,27.25 0,15.672 -8.5,27.391 -22.85,27.391 -8.64,0 -17.29,-5.269 -21.09,-11.418 v -32.082 c 3.8,-6.16 12.45,-11.141 21.09,-11.141 z m -32.08,-8.046 v 97.699 h 10.99 V 227.66 c 5.71,7.762 14.2,12.449 23.87,12.449 18.45,0 31.5,-14.648 31.5,-37.211 0,-23 -13.05,-37.058 -31.5,-37.058 -9.96,0 -18.6,5.129 -23.87,12.301 v -10.539 h -10.99" /><path
         id="path288"
         style="fill:#1e2328;fill-opacity:1;fill-rule:nonzero;stroke:none"
         d="m 2475.29,149.871 c 1.6,-0.73 4.25,-1.172 5.99,-1.172 4.85,0 8.07,1.61 10.55,7.473 l 4.69,10.699 -29.59,71.481 h 11.87 l 23.58,-58.012 23.44,58.012 h 12.01 l -35.45,-85.11 c -4.24,-10.242 -11.43,-14.211 -20.8,-14.351 -2.35,0 -6,0.441 -8.05,1.031 l 1.76,9.949" /></g></g></svg>